<?xml version="1.0" encoding="utf-8"?>
<!-- Generator: Adobe Illustrator 21.1.0, SVG Export Plug-In . SVG Version: 6.00 Build 0)  -->
<svg version="1.1" id="Layer_1" xmlns="http://www.w3.org/2000/svg" xmlns:xlink="http://www.w3.org/1999/xlink" x="0px" y="0px"
	 viewBox="0 0 330 32" style="enable-background:new 0 0 330 32;" xml:space="preserve">
<style type="text/css">
	.st0{fill-rule:evenodd;clip-rule:evenodd;fill:#00ADBC;}
	.st1{fill-rule:evenodd;clip-rule:evenodd;}
	.st2{fill-rule:evenodd;clip-rule:evenodd;fill:#00AEBC;}
</style>
<polygon class="st0" points="0,9 11,9 11,12 7,12 7,24 4,24 4,12 0,12 "/>
<polygon class="st0" points="16.2,9 19.8,9 19.8,15 26,15 26,9 29.7,9 29.7,24 26,24 26,18 19.8,18 19.8,24 16.2,24 "/>
<polygon class="st0" points="37,9 37,24 45,24 45,21.2 40,21.2 40,17.8 45,17.8 45,15.2 40,15.2 40,11.8 45,11.8 45,9 "/>
<path class="st1" d="M52,0v32h10.3c0,0,8.3,0.7,8.3-9.3c0,0-0.3-5.8-5.5-7.5v-0.4c0,0,2.4-1.7,2.4-7.5S62.1,0,59.2,0H52z M54,2.1
	h5.2c0,0,6-0.5,6.2,5.2c0.2,6.6-4.1,7.2-4.1,7.2H54V2.1z M54,16.5h8.3c0,0,6.1,1.3,6.2,6.2c0.1,7-6.2,7.2-6.2,7.2H54V16.5z"/>
<polygon class="st1" points="76.9,0 76.9,32 93.5,32 93.5,29.9 79,29.9 79,15.5 92.4,15.5 92.4,13.4 79,13.4 79,2.1 93.5,2.1 
	93.5,0 "/>
<polygon class="st2" points="314,1 314,32 330,32 330,30 316,30 316,16 329,16 329,14 316,14 316,3 330,3 330,1 "/>
<path class="st1" d="M97,32H99l4.1-9.3h16.5l4.1,9.3h2.1L112.5,0h-1L97,32z M104.2,20.7l7.2-15.5h1l6.2,15.5H104.2z"/>
<path class="st1" d="M130.2,0h2.8v22.1c0,0,0.3,7.5,8,7.5c8,0,9-7.4,9-7.4V0h2.8v22.8c0,0-0.8,9.2-11.8,9.2
	c-10.6,0-10.8-9.2-10.8-9.2V0z"/>
<polygon class="st1" points="157,0 176,0 176,3 168,3 168,32 165,32 165,3 157,3 "/>
<polygon class="st2" points="229,0 248,0 248,3 240,3 240,32 237,32 237,3 229,3 "/>
<polygon class="st1" points="178,0 188,17 188,32 191,32 191,17 201,0 198.7,0 189.8,15 189.2,15 180.3,0 "/>
<path class="st2" d="M224,4c0,0-1.7-4-7-4c-5.3,0-9,2.6-9,7c0,4.4,1.1,5,4,7s9.7,4.3,11,7.3c0,0,0.7,4-1,5.7c0,0-1.8,3-6,3
	s-7.7-3.5-7.3-5.8c0,0-2.2-0.3-2.7,0.8c0,0,0.3,7,10,7s10-9,10-9s-0.2-3.6-2.5-5.3c0,0-4.3-2.4-10.2-6C207.4,8,211.5,1.2,217,2
	c5.5,0.8,5,3,5,3S223.7,5.6,224,4z"/>
<path class="st2" d="M267,2.1c7.7,0,13.9,6.2,13.9,13.9s-6.2,13.9-13.9,13.9c-7.7,0-13.9-6.2-13.9-13.9S259.3,2.1,267,2.1z M267,0
	c8.8,0,16,7.2,16,16s-7.2,16-16,16c-8.8,0-16-7.2-16-16S258.2,0,267,0z"/>
<path class="st2" d="M290,0v32h3V18h2l9.7,14h2.6L298,18c0,0,8-1.7,8-10c0-7-9-8-9-8H290z M293,2.5h3.9c0,0,6.2,0.4,6.4,5.9
	c0.2,5.5-5,7-5,7H293V2.5z"/>
</svg>
